<?xml version="1.0" encoding="utf-8" ?>
<svg baseProfile="full" height="128" version="1.1" width="228" xmlns="http://www.w3.org/2000/svg" xmlnsEv="http://www.w3.org/2001/xml-events" xmlnsXlink="http://www.w3.org/1999/xlink"><defs><mask id="mask1"><rect fill="white" height="100%" width="100%" x="0" y="0" /><polygon fill="black" points="171.07106781186548,6.9289321881345245 169.0,5.339745962155611 166.5881904510252,4.340741737109319 164.0,4.0 161.4118095489748,4.340741737109319 159.0,5.339745962155618 156.92893218813452,6.9289321881345245 155.3397459621556,9.0 154.3407417371093,11.411809548974794 154.0,14.0 154,24.0 14.0,24.0 12.263518223330692,24.151922469877917 10.579798566743307,24.60307379214092 9.0,25.339745962155618 7.57212390313461,26.33955556881022 6.339555568810226,27.57212390313461 5.339745962155604,29.0 4.603073792140918,30.579798566743314 4.151922469877917,32.26351822333069 4.0,34.0 4.0,94.0 4.151922469877917,95.73648177666931 4.603073792140918,97.4202014332567 5.339745962155604,99.0 6.339555568810226,100.42787609686539 7.57212390313461,101.66044443118977 9.0,102.66025403784438 10.579798566743307,103.39692620785908 12.263518223330692,103.84807753012208 14.0,104.0 154,104.0 154.0,114.0 154.3407417371093,116.58819045102521 155.3397459621556,119.0 156.92893218813452,121.07106781186548 159.0,122.66025403784438 161.4118095489748,123.65925826289069 164.0,124.0 166.5881904510252,123.65925826289069 169.0,122.6602540378444 171.07106781186548,121.07106781186548 221.07106781186548,71.07106781186548 222.19152044288992,69.73576436351047 223.0630778703665,68.22618261740699 223.6592582628907,66.58819045102521 223.96194698091745,64.87155742747659 223.96194698091745,63.12844257252342 223.6592582628907,61.411809548974794 223.0630778703665,59.77381738259301 222.19152044288992,58.264235636489545 221.07106781186548,56.928932188134524" /></mask><filter id="filter1"><feGaussianBlur in="SourceAlpha" result="blur1" stdDeviation="4" /><feSpecularLighting in="blur1" lighting-color="#888888" result="light1" specularExponent="20"><fePointLight x="80" y="-40" z="200" /></feSpecularLighting><feComposite in="SourceGraphic" in2="light1" k1="0" k2="1" k3="1" k4="0" operator="arithmetic" /><feComposite in="SourceGraphic" in2="light1" k1="0" k2="1" k3="1" k4="0" operator="arithmetic" /></filter></defs><polygon fill="#6F9CC0" filter="url(#filter1)" points="171.07106781186548,6.9289321881345245 169.0,5.339745962155611 166.5881904510252,4.340741737109319 164.0,4.0 161.4118095489748,4.340741737109319 159.0,5.339745962155618 156.92893218813452,6.9289321881345245 155.3397459621556,9.0 154.3407417371093,11.411809548974794 154.0,14.0 154,24.0 14.0,24.0 12.263518223330692,24.151922469877917 10.579798566743307,24.60307379214092 9.0,25.339745962155618 7.57212390313461,26.33955556881022 6.339555568810226,27.57212390313461 5.339745962155604,29.0 4.603073792140918,30.579798566743314 4.151922469877917,32.26351822333069 4.0,34.0 4.0,94.0 4.151922469877917,95.73648177666931 4.603073792140918,97.4202014332567 5.339745962155604,99.0 6.339555568810226,100.42787609686539 7.57212390313461,101.66044443118977 9.0,102.66025403784438 10.579798566743307,103.39692620785908 12.263518223330692,103.84807753012208 14.0,104.0 154,104.0 154.0,114.0 154.3407417371093,116.58819045102521 155.3397459621556,119.0 156.92893218813452,121.07106781186548 159.0,122.66025403784438 161.4118095489748,123.65925826289069 164.0,124.0 166.5881904510252,123.65925826289069 169.0,122.6602540378444 171.07106781186548,121.07106781186548 221.07106781186548,71.07106781186548 222.19152044288992,69.73576436351047 223.0630778703665,68.22618261740699 223.6592582628907,66.58819045102521 223.96194698091745,64.87155742747659 223.96194698091745,63.12844257252342 223.6592582628907,61.411809548974794 223.0630778703665,59.77381738259301 222.19152044288992,58.264235636489545 221.07106781186548,56.928932188134524" /><rect fill="#333" height="100%" mask="url(#mask1)" width="100%" x="0" y="0" /></svg>
