<?xml version="1.0" encoding="utf-8" ?>
<svg baseProfile="full" height="128" version="1.1" width="228" xmlns="http://www.w3.org/2000/svg" xmlnsEv="http://www.w3.org/2001/xml-events" xmlnsXlink="http://www.w3.org/1999/xlink"><defs><mask id="mask1"><rect fill="white" height="100%" width="100%" x="0" y="0" /><polygon fill="black" points="6.9289321881345245,56.928932188134524 5.808479557110076,58.264235636489545 4.936922129633501,59.77381738259301 4.340741737109312,61.411809548974794 4.038053019082554,63.12844257252342 4.038053019082554,64.87155742747659 4.340741737109312,66.58819045102521 4.936922129633501,68.22618261740699 5.808479557110076,69.73576436351047 6.9289321881345245,71.07106781186548 56.928932188134524,121.07106781186548 59.0,122.6602540378444 61.41180954897479,123.65925826289069 64.0,124.0 66.58819045102521,123.65925826289069 69.0,122.66025403784438 71.07106781186548,121.07106781186548 72.6602540378444,119.0 73.65925826289069,116.58819045102521 74.0,114.0 74,104.0 214.0,104.0 215.7364817766693,103.84807753012208 217.4202014332567,103.39692620785908 219.0,102.66025403784438 220.4278760968654,101.66044443118977 221.66044443118977,100.42787609686539 222.6602540378444,99.0 223.39692620785908,97.4202014332567 223.84807753012208,95.73648177666931 224.0,94.0 224.0,34.0 223.84807753012208,32.26351822333069 223.39692620785908,30.579798566743314 222.6602540378444,29.0 221.66044443118977,27.57212390313461 220.4278760968654,26.33955556881022 219.0,25.339745962155618 217.4202014332567,24.60307379214092 215.7364817766693,24.151922469877917 214.0,24.0 74,24.0 74.0,14.0 73.65925826289069,11.411809548974794 72.6602540378444,9.0 71.07106781186548,6.9289321881345245 69.0,5.339745962155618 66.58819045102521,4.340741737109319 64.0,4.0 61.41180954897479,4.340741737109319 59.0,5.339745962155611 56.928932188134524,6.9289321881345245" /></mask><filter id="filter1"><feGaussianBlur in="SourceAlpha" result="blur1" stdDeviation="4" /><feSpecularLighting in="blur1" lighting-color="#cccccc" result="light1" specularExponent="20"><fePointLight x="80" y="-40" z="200" /></feSpecularLighting><feComposite in="SourceGraphic" in2="light1" k1="0" k2="1" k3="1" k4="0" operator="arithmetic" /><feComposite in="SourceGraphic" in2="light1" k1="0" k2="1" k3="1" k4="0" operator="arithmetic" /></filter></defs><polygon fill="#7fb3dc" filter="url(#filter1)" points="6.9289321881345245,56.928932188134524 5.808479557110076,58.264235636489545 4.936922129633501,59.77381738259301 4.340741737109312,61.411809548974794 4.038053019082554,63.12844257252342 4.038053019082554,64.87155742747659 4.340741737109312,66.58819045102521 4.936922129633501,68.22618261740699 5.808479557110076,69.73576436351047 6.9289321881345245,71.07106781186548 56.928932188134524,121.07106781186548 59.0,122.6602540378444 61.41180954897479,123.65925826289069 64.0,124.0 66.58819045102521,123.65925826289069 69.0,122.66025403784438 71.07106781186548,121.07106781186548 72.6602540378444,119.0 73.65925826289069,116.58819045102521 74.0,114.0 74,104.0 214.0,104.0 215.7364817766693,103.84807753012208 217.4202014332567,103.39692620785908 219.0,102.66025403784438 220.4278760968654,101.66044443118977 221.66044443118977,100.42787609686539 222.6602540378444,99.0 223.39692620785908,97.4202014332567 223.84807753012208,95.73648177666931 224.0,94.0 224.0,34.0 223.84807753012208,32.26351822333069 223.39692620785908,30.579798566743314 222.6602540378444,29.0 221.66044443118977,27.57212390313461 220.4278760968654,26.33955556881022 219.0,25.339745962155618 217.4202014332567,24.60307379214092 215.7364817766693,24.151922469877917 214.0,24.0 74,24.0 74.0,14.0 73.65925826289069,11.411809548974794 72.6602540378444,9.0 71.07106781186548,6.9289321881345245 69.0,5.339745962155618 66.58819045102521,4.340741737109319 64.0,4.0 61.41180954897479,4.340741737109319 59.0,5.339745962155611 56.928932188134524,6.9289321881345245" /><rect fill="#333" height="100%" mask="url(#mask1)" width="100%" x="0" y="0" /></svg>
